<svg xmlns="http://www.w3.org/2000/svg" width="1200" height="800" viewBox="0 0 1200 800" role="img" aria-labelledby="t d">
<title id="t">Funnel architecture</title><desc id="d">Anonymized or synthetic reconstruction based on real delivery. It is not a production screenshot. No client data, credentials, account identifiers or private endpoints are included.</desc>
<style>text{font-family:Arial, Helvetica, sans-serif;fill:#17211d}.serif{font-family:Georgia, Times New Roman, serif}.mono{font-family:ui-monospace, SFMono-Regular, Consolas, monospace;letter-spacing:1px}.small{font-size:14px}.label{font-size:13px;font-weight:700;fill:#175b47}.body{font-size:18px}.muted{fill:#5d6963}.node{fill:#fffdf8;stroke:#17211d;stroke-width:1.5}.soft{fill:#e6eee8;stroke:#175b47;stroke-width:1.5}.line{stroke:#17211d;stroke-width:2;fill:none}.dash{stroke:#5d6963;stroke-width:1.5;stroke-dasharray:7 7;fill:none}</style>
<rect width="1200" height="800" fill="#f5f1e8"/><line x1="64" y1="74" x2="1136" y2="74" stroke="#17211d"/><text x="64" y="48" class="mono label">EVIDENCE RECONSTRUCTION</text>
<text x="64" y="132" class="serif" font-size="42">Funnel architecture</text><text x="64" y="166" class="body muted">Sanitized operating path from acquisition to follow-up.</text>
<rect x="70" y="280" width="170" height="90" rx="4" class="node"/><text x="88" y="311" font-size="17" font-weight="700">Traffic source</text><text x="88" y="336" class="small muted">UTM captured</text><rect x="280" y="280" width="170" height="90" rx="4" class="node"/><text x="298" y="311" font-size="17" font-weight="700">VSL + opt-in</text><text x="298" y="336" class="small muted">Consent + lead</text><rect x="490" y="280" width="170" height="90" rx="4" class="node"/><text x="508" y="311" font-size="17" font-weight="700">Webinar</text><text x="508" y="336" class="small muted">Attendance state</text><rect x="700" y="280" width="180" height="90" rx="4" class="soft"/><text x="718" y="311" font-size="17" font-weight="700">CRM routing</text><text x="718" y="336" class="small muted">Owner + stage</text><rect x="920" y="280" width="190" height="90" rx="4" class="node"/><text x="938" y="311" font-size="17" font-weight="700">Follow-up</text><text x="938" y="336" class="small muted">Email / SMS</text><path d="M240 325 L280 325" class="line"/><path d="M271 319 L280 325 L271 331" class="line"/><path d="M450 325 L490 325" class="line"/><path d="M481 319 L490 325 L481 331" class="line"/><path d="M660 325 L700 325" class="line"/><path d="M691 319 L700 325 L691 331" class="line"/><path d="M880 325 L920 325" class="line"/><path d="M911 319 L920 325 L911 331" class="line"/><rect x="350" y="465" width="220" height="90" rx="4" class="node"/><text x="368" y="496" font-size="17" font-weight="700">Airtable record</text><text x="368" y="521" class="small muted">Source + lifecycle</text><rect x="650" y="465" width="220" height="90" rx="4" class="node"/><text x="668" y="496" font-size="17" font-weight="700">Tracking layer</text><text x="668" y="521" class="small muted">Pixel + GTM events</text><path d="M700 370 L570 465" class="line"/><path d="M561 459 L570 465 L561 471" class="line"/><text x="635.0" y="360" text-anchor="middle" class="small muted">operational write</text><path d="M790 465 L790 370" class="line"/><path d="M781 364 L790 370 L781 376" class="line"/><text x="790.0" y="455" text-anchor="middle" class="small muted">event/state sync</text>
<line x1="64" y1="716" x2="1136" y2="716" stroke="#c7cec8"/><text x="64" y="748" class="small muted">Anonymized or synthetic reconstruction based on real delivery. It is not a production screenshot. No client data, credentials, account identifiers or private endpoints are included.</text><text x="64" y="770" class="small muted">Portfolio evidence pack · Nicholas Mariani · 2026</text></svg>