<svg xmlns="http://www.w3.org/2000/svg" width="1200" height="800" viewBox="0 0 1200 800" role="img" aria-labelledby="t d">
<title id="t">Funnel workflow</title><desc id="d">Anonymized or synthetic reconstruction based on real delivery. It is not a production screenshot. No client data, credentials, account identifiers or private endpoints are included.</desc>
<style>text{font-family:Arial, Helvetica, sans-serif;fill:#17211d}.serif{font-family:Georgia, Times New Roman, serif}.mono{font-family:ui-monospace, SFMono-Regular, Consolas, monospace;letter-spacing:1px}.small{font-size:14px}.label{font-size:13px;font-weight:700;fill:#175b47}.body{font-size:18px}.muted{fill:#5d6963}.node{fill:#fffdf8;stroke:#17211d;stroke-width:1.5}.soft{fill:#e6eee8;stroke:#175b47;stroke-width:1.5}.line{stroke:#17211d;stroke-width:2;fill:none}.dash{stroke:#5d6963;stroke-width:1.5;stroke-dasharray:7 7;fill:none}</style>
<rect width="1200" height="800" fill="#f5f1e8"/><line x1="64" y1="74" x2="1136" y2="74" stroke="#17211d"/><text x="64" y="48" class="mono label">EVIDENCE RECONSTRUCTION</text>
<text x="64" y="132" class="serif" font-size="42">Funnel workflow</text><text x="64" y="166" class="body muted">Synthetic workflow showing decisions, state and control points.</text>
<rect x="80" y="250" width="220" height="90" rx="4" class="node"/><text x="98" y="281" font-size="17" font-weight="700">Lead submitted</text><text x="98" y="306" class="small muted">validate required fields</text><path d="M300 295 L390 295" class="line"/><path d="M381 289 L390 295 L381 301" class="line"/><text x="345.0" y="285" text-anchor="middle" class="small muted">valid</text><rect x="390" y="250" width="220" height="90" rx="4" class="soft"/><text x="408" y="281" font-size="17" font-weight="700">Upsert contact</text><text x="408" y="306" class="small muted">dedupe by stable key</text><path d="M610 295 L700 295" class="line"/><path d="M691 289 L700 295 L691 301" class="line"/><rect x="700" y="250" width="220" height="90" rx="4" class="node"/><text x="718" y="281" font-size="17" font-weight="700">Assign route</text><text x="718" y="306" class="small muted">source + intent</text><path d="M920 295 L1020 295" class="line"/><path d="M1011 289 L1020 295 L1011 301" class="line"/><rect x="1020" y="250" width="110" height="90" rx="4" class="node"/><text x="1038" y="281" font-size="17" font-weight="700">Notify</text><text x="1038" y="306" class="small muted">team</text><path d="M500 340 L500 455" class="line"/><path d="M491 449 L500 455 L491 461" class="line"/><text x="500.0" y="330" text-anchor="middle" class="small muted">if duplicate</text><rect x="390" y="455" width="220" height="90" rx="4" class="node"/><text x="408" y="486" font-size="17" font-weight="700">Merge context</text><text x="408" y="511" class="small muted">preserve first source</text><path d="M610 500 L700 500" class="line"/><path d="M691 494 L700 500 L691 506" class="line"/><rect x="700" y="455" width="220" height="90" rx="4" class="node"/><text x="718" y="486" font-size="17" font-weight="700">Schedule follow-up</text><text x="718" y="511" class="small muted">state-based cadence</text><text x="80" y="620" class="body"><tspan font-weight="700">Control points:</tspan> idempotent upsert · validation failure log · source persistence · manual override</text>
<line x1="64" y1="716" x2="1136" y2="716" stroke="#c7cec8"/><text x="64" y="748" class="small muted">Anonymized or synthetic reconstruction based on real delivery. It is not a production screenshot. No client data, credentials, account identifiers or private endpoints are included.</text><text x="64" y="770" class="small muted">Portfolio evidence pack · Nicholas Mariani · 2026</text></svg>