<svg xmlns="http://www.w3.org/2000/svg" width="1200" height="800" viewBox="0 0 1200 800" role="img" aria-labelledby="t d">
<title id="t">Airtable relational schema</title><desc id="d">Anonymized or synthetic reconstruction based on real delivery. It is not a production screenshot. No client data, credentials, account identifiers or private endpoints are included.</desc>
<style>text{font-family:Arial, Helvetica, sans-serif;fill:#17211d}.serif{font-family:Georgia, Times New Roman, serif}.mono{font-family:ui-monospace, SFMono-Regular, Consolas, monospace;letter-spacing:1px}.small{font-size:14px}.label{font-size:13px;font-weight:700;fill:#175b47}.body{font-size:18px}.muted{fill:#5d6963}.node{fill:#fffdf8;stroke:#17211d;stroke-width:1.5}.soft{fill:#e6eee8;stroke:#175b47;stroke-width:1.5}.line{stroke:#17211d;stroke-width:2;fill:none}.dash{stroke:#5d6963;stroke-width:1.5;stroke-dasharray:7 7;fill:none}</style>
<rect width="1200" height="800" fill="#f5f1e8"/><line x1="64" y1="74" x2="1136" y2="74" stroke="#17211d"/><text x="64" y="48" class="mono label">EVIDENCE RECONSTRUCTION</text>
<text x="64" y="132" class="serif" font-size="42">Airtable relational schema</text><text x="64" y="166" class="body muted">Synthetic schema representing the operating model, not an exported client base.</text>
<rect x="70" y="245" width="210" height="105" rx="4" class="node"/><text x="88" y="276" font-size="17" font-weight="700">Business units</text><text x="88" y="301" class="small muted">unit_id · owner</text><rect x="370" y="225" width="220" height="105" rx="4" class="soft"/><text x="388" y="256" font-size="17" font-weight="700">Leads</text><text x="388" y="281" class="small muted">lead_id · source</text><rect x="700" y="225" width="210" height="105" rx="4" class="node"/><text x="718" y="256" font-size="17" font-weight="700">Applications</text><text x="718" y="281" class="small muted">application_id · stage</text><rect x="700" y="430" width="210" height="105" rx="4" class="node"/><text x="718" y="461" font-size="17" font-weight="700">Service cases</text><text x="718" y="486" class="small muted">case_id · status</text><rect x="370" y="430" width="220" height="105" rx="4" class="node"/><text x="388" y="461" font-size="17" font-weight="700">Touchpoints</text><text x="388" y="486" class="small muted">touchpoint_id · type</text><path d="M280 290 L370 278" class="line"/><path d="M361 272 L370 278 L361 284" class="line"/><text x="325.0" y="280" text-anchor="middle" class="small muted">1:n</text><path d="M590 278 L700 278" class="line"/><path d="M691 272 L700 278 L691 284" class="line"/><text x="645.0" y="268" text-anchor="middle" class="small muted">1:n</text><path d="M590 482 L700 482" class="line"/><path d="M691 476 L700 482 L691 488" class="line"/><text x="645.0" y="472" text-anchor="middle" class="small muted">1:n</text><path d="M480 330 L480 430" class="line"/><path d="M471 424 L480 430 L471 436" class="line"/><text x="480.0" y="320" text-anchor="middle" class="small muted">1:n</text><path d="M805 330 L805 430" class="dash"/><text x="820" y="385" class="small muted">optional case link</text>
<line x1="64" y1="716" x2="1136" y2="716" stroke="#c7cec8"/><text x="64" y="748" class="small muted">Anonymized or synthetic reconstruction based on real delivery. It is not a production screenshot. No client data, credentials, account identifiers or private endpoints are included.</text><text x="64" y="770" class="small muted">Portfolio evidence pack · Nicholas Mariani · 2026</text></svg>