<svg xmlns="http://www.w3.org/2000/svg" width="1200" height="800" viewBox="0 0 1200 800" role="img" aria-labelledby="t d">
<title id="t">Example record lifecycle</title><desc id="d">Anonymized or synthetic reconstruction based on real delivery. It is not a production screenshot. No client data, credentials, account identifiers or private endpoints are included.</desc>
<style>text{font-family:Arial, Helvetica, sans-serif;fill:#17211d}.serif{font-family:Georgia, Times New Roman, serif}.mono{font-family:ui-monospace, SFMono-Regular, Consolas, monospace;letter-spacing:1px}.small{font-size:14px}.label{font-size:13px;font-weight:700;fill:#175b47}.body{font-size:18px}.muted{fill:#5d6963}.node{fill:#fffdf8;stroke:#17211d;stroke-width:1.5}.soft{fill:#e6eee8;stroke:#175b47;stroke-width:1.5}.line{stroke:#17211d;stroke-width:2;fill:none}.dash{stroke:#5d6963;stroke-width:1.5;stroke-dasharray:7 7;fill:none}</style>
<rect width="1200" height="800" fill="#f5f1e8"/><line x1="64" y1="74" x2="1136" y2="74" stroke="#17211d"/><text x="64" y="48" class="mono label">EVIDENCE RECONSTRUCTION</text>
<text x="64" y="132" class="serif" font-size="42">Example record lifecycle</text><text x="64" y="166" class="body muted">Synthetic state model with ownership and recycle controls.</text>
<text x="72" y="225" class="mono label">GROUP</text><text x="310" y="225" class="mono label">FIELD</text><text x="600" y="225" class="mono label">RULE</text><text x="920" y="225" class="mono label">EXAMPLE</text><rect x="64" y="250" width="1072" height="58" fill="#fffdf8" stroke="#c7cec8"/><text x="80" y="285" class="body">Identity</text><text x="310" y="285" font-size="17" font-family="ui-monospace, SFMono-Regular, Consolas, monospace">lead_id</text><text x="600" y="285" class="body">stable synthetic key</text><text x="920" y="285" class="small muted">L-00042</text><rect x="64" y="326" width="1072" height="58" fill="#fffdf8" stroke="#c7cec8"/><text x="80" y="361" class="body">Acquisition</text><text x="310" y="361" font-size="17" font-family="ui-monospace, SFMono-Regular, Consolas, monospace">utm_source</text><text x="600" y="361" class="body">normalized source</text><text x="920" y="361" class="small muted">paid-social</text><rect x="64" y="402" width="1072" height="58" fill="#fffdf8" stroke="#c7cec8"/><text x="80" y="437" class="body">Lifecycle</text><text x="310" y="437" font-size="17" font-family="ui-monospace, SFMono-Regular, Consolas, monospace">stage</text><text x="600" y="437" class="body">controlled status</text><text x="920" y="437" class="small muted">qualified</text><rect x="64" y="478" width="1072" height="58" fill="#fffdf8" stroke="#c7cec8"/><text x="80" y="513" class="body">Ownership</text><text x="310" y="513" font-size="17" font-family="ui-monospace, SFMono-Regular, Consolas, monospace">owner_id</text><text x="600" y="513" class="body">linked operator</text><text x="920" y="513" class="small muted">OP-07</text><rect x="64" y="554" width="1072" height="58" fill="#fffdf8" stroke="#c7cec8"/><text x="80" y="589" class="body">Service</text><text x="310" y="589" font-size="17" font-family="ui-monospace, SFMono-Regular, Consolas, monospace">case_status</text><text x="600" y="589" class="body">open / waiting / closed</text><text x="920" y="589" class="small muted">waiting</text><rect x="64" y="290" width="175" height="90" rx="4" class="node"/><text x="82" y="321" font-size="17" font-weight="700">New</text><text x="82" y="346" class="small muted">captured</text><path d="M239 335 L279 335" class="line"/><path d="M270 329 L279 335 L270 341" class="line"/><rect x="279" y="290" width="175" height="90" rx="4" class="node"/><text x="297" y="321" font-size="17" font-weight="700">Validated</text><text x="297" y="346" class="small muted">deduped</text><path d="M454 335 L494 335" class="line"/><path d="M485 329 L494 335 L485 341" class="line"/><rect x="494" y="290" width="175" height="90" rx="4" class="soft"/><text x="512" y="321" font-size="17" font-weight="700">Assigned</text><text x="512" y="346" class="small muted">owner set</text><path d="M669 335 L709 335" class="line"/><path d="M700 329 L709 335 L700 341" class="line"/><rect x="709" y="290" width="175" height="90" rx="4" class="soft"/><text x="727" y="321" font-size="17" font-weight="700">Qualified</text><text x="727" y="346" class="small muted">rule passed</text><path d="M884 335 L924 335" class="line"/><path d="M915 329 L924 335 L915 341" class="line"/><rect x="924" y="290" width="175" height="90" rx="4" class="node"/><text x="942" y="321" font-size="17" font-weight="700">Converted</text><text x="942" y="346" class="small muted">closed state</text><path d="M796 380 C796 500 366 500 366 380" class="dash"/><text x="490" y="530" class="small muted">manual recycle with reason code; first-source remains immutable</text>
<line x1="64" y1="716" x2="1136" y2="716" stroke="#c7cec8"/><text x="64" y="748" class="small muted">Anonymized or synthetic reconstruction based on real delivery. It is not a production screenshot. No client data, credentials, account identifiers or private endpoints are included.</text><text x="64" y="770" class="small muted">Portfolio evidence pack · Nicholas Mariani · 2026</text></svg>