<svg xmlns="http://www.w3.org/2000/svg" width="1200" height="800" viewBox="0 0 1200 800" role="img" aria-labelledby="t d">
<title id="t">Generalized dental CRM ETL</title><desc id="d">Anonymized or synthetic reconstruction based on real delivery. It is not a production screenshot. No client data, credentials, account identifiers or private endpoints are included.</desc>
<style>text{font-family:Arial, Helvetica, sans-serif;fill:#17211d}.serif{font-family:Georgia, Times New Roman, serif}.mono{font-family:ui-monospace, SFMono-Regular, Consolas, monospace;letter-spacing:1px}.small{font-size:14px}.label{font-size:13px;font-weight:700;fill:#175b47}.body{font-size:18px}.muted{fill:#5d6963}.node{fill:#fffdf8;stroke:#17211d;stroke-width:1.5}.soft{fill:#e6eee8;stroke:#175b47;stroke-width:1.5}.line{stroke:#17211d;stroke-width:2;fill:none}.dash{stroke:#5d6963;stroke-width:1.5;stroke-dasharray:7 7;fill:none}</style>
<rect width="1200" height="800" fill="#f5f1e8"/><line x1="64" y1="74" x2="1136" y2="74" stroke="#17211d"/><text x="64" y="48" class="mono label">EVIDENCE RECONSTRUCTION</text>
<text x="64" y="132" class="serif" font-size="42">Generalized dental CRM ETL</text><text x="64" y="166" class="body muted">Sanitized architecture derived from real discovery, mapping, normalization and QA work.</text>
<rect x="64" y="270" width="190" height="100" rx="4" class="node"/><text x="82" y="301" font-size="17" font-weight="700">Source registry</text><text x="82" y="326" class="small muted">sanitized clinic list</text><path d="M254 320 L310 320" class="line"/><path d="M301 314 L310 320 L301 326" class="line"/><rect x="310" y="270" width="190" height="100" rx="4" class="node"/><text x="328" y="301" font-size="17" font-weight="700">Discovery</text><text x="328" y="326" class="small muted">tabs + headers</text><path d="M500 320 L556 320" class="line"/><path d="M547 314 L556 320 L547 326" class="line"/><rect x="556" y="270" width="190" height="100" rx="4" class="soft"/><text x="574" y="301" font-size="17" font-weight="700">Mapping</text><text x="574" y="326" class="small muted">canonical fields</text><path d="M746 320 L802 320" class="line"/><path d="M793 314 L802 320 L793 326" class="line"/><rect x="802" y="270" width="150" height="100" rx="4" class="node"/><text x="820" y="301" font-size="17" font-weight="700">ETL</text><text x="820" y="326" class="small muted">normalize</text><path d="M952 320 L1008 320" class="line"/><path d="M999 314 L1008 320 L999 326" class="line"/><rect x="1008" y="270" width="128" height="100" rx="4" class="node"/><text x="1026" y="301" font-size="17" font-weight="700">QA</text><text x="1026" y="326" class="small muted">coverage</text><rect x="310" y="470" width="190" height="90" rx="4" class="node"/><text x="328" y="501" font-size="17" font-weight="700">Checkpoint</text><text x="328" y="526" class="small muted">resume safely</text><rect x="556" y="470" width="190" height="90" rx="4" class="node"/><text x="574" y="501" font-size="17" font-weight="700">Exception queue</text><text x="574" y="526" class="small muted">unknown headers</text><rect x="802" y="470" width="150" height="90" rx="4" class="node"/><text x="820" y="501" font-size="17" font-weight="700">Data mart</text><text x="820" y="526" class="small muted">aggregated only</text><path d="M405 470 L405 370" class="line"/><path d="M396 364 L405 370 L396 376" class="line"/><path d="M651 470 L651 370" class="line"/><path d="M642 364 L651 370 L642 376" class="line"/><path d="M877 370 L877 470" class="line"/><path d="M868 464 L877 470 L868 476" class="line"/>
<line x1="64" y1="716" x2="1136" y2="716" stroke="#c7cec8"/><text x="64" y="748" class="small muted">Anonymized or synthetic reconstruction based on real delivery. It is not a production screenshot. No client data, credentials, account identifiers or private endpoints are included.</text><text x="64" y="770" class="small muted">Portfolio evidence pack · Nicholas Mariani · 2026</text></svg>