<svg xmlns="http://www.w3.org/2000/svg" width="1200" height="800" viewBox="0 0 1200 800" role="img" aria-labelledby="t d">
<title id="t">Redacted Docker/VPS topology</title><desc id="d">Anonymized or synthetic reconstruction based on real delivery. It is not a production screenshot. No client data, credentials, account identifiers or private endpoints are included.</desc>
<style>text{font-family:Arial, Helvetica, sans-serif;fill:#17211d}.serif{font-family:Georgia, Times New Roman, serif}.mono{font-family:ui-monospace, SFMono-Regular, Consolas, monospace;letter-spacing:1px}.small{font-size:14px}.label{font-size:13px;font-weight:700;fill:#175b47}.body{font-size:18px}.muted{fill:#5d6963}.node{fill:#fffdf8;stroke:#17211d;stroke-width:1.5}.soft{fill:#e6eee8;stroke:#175b47;stroke-width:1.5}.line{stroke:#17211d;stroke-width:2;fill:none}.dash{stroke:#5d6963;stroke-width:1.5;stroke-dasharray:7 7;fill:none}</style>
<rect width="1200" height="800" fill="#f5f1e8"/><line x1="64" y1="74" x2="1136" y2="74" stroke="#17211d"/><text x="64" y="48" class="mono label">EVIDENCE RECONSTRUCTION</text>
<text x="64" y="132" class="serif" font-size="42">Redacted Docker/VPS topology</text><text x="64" y="166" class="body muted">Generalized self-hosted automation topology with no domains, IPs or credentials.</text>
<rect x="80" y="245" width="210" height="100" rx="4" class="node"/><text x="98" y="276" font-size="17" font-weight="700">Cloudflare edge</text><text x="98" y="301" class="small muted">DNS / tunnel</text><path d="M290 295 L370 295" class="line"/><path d="M361 289 L370 295 L361 301" class="line"/><rect x="370" y="245" width="190" height="100" rx="4" class="node"/><text x="388" y="276" font-size="17" font-weight="700">Traefik</text><text x="388" y="301" class="small muted">TLS + routing</text><path d="M560 295 L640 295" class="line"/><path d="M631 289 L640 295 L631 301" class="line"/><rect x="640" y="245" width="180" height="100" rx="4" class="soft"/><text x="658" y="276" font-size="17" font-weight="700">n8n</text><text x="658" y="301" class="small muted">workflow engine</text><path d="M820 295 L900 295" class="line"/><path d="M891 289 L900 295 L891 301" class="line"/><rect x="900" y="245" width="220" height="100" rx="4" class="node"/><text x="918" y="276" font-size="17" font-weight="700">External systems</text><text x="918" y="301" class="small muted">APIs / webhooks</text><rect x="370" y="460" width="190" height="90" rx="4" class="node"/><text x="388" y="491" font-size="17" font-weight="700">Docker network</text><text x="388" y="516" class="small muted">isolated services</text><rect x="640" y="460" width="180" height="90" rx="4" class="node"/><text x="658" y="491" font-size="17" font-weight="700">Redis</text><text x="658" y="516" class="small muted">queue / state</text><rect x="900" y="460" width="220" height="90" rx="4" class="node"/><text x="918" y="491" font-size="17" font-weight="700">Logs + backups</text><text x="918" y="516" class="small muted">redacted targets</text><path d="M465 345 L465 460" class="line"/><path d="M456 454 L465 460 L456 466" class="line"/><path d="M730 345 L730 460" class="line"/><path d="M721 454 L730 460 L721 466" class="line"/><path d="M820 505 L900 505" class="line"/><path d="M891 499 L900 505 L891 511" class="line"/>
<line x1="64" y1="716" x2="1136" y2="716" stroke="#c7cec8"/><text x="64" y="748" class="small muted">Anonymized or synthetic reconstruction based on real delivery. It is not a production screenshot. No client data, credentials, account identifiers or private endpoints are included.</text><text x="64" y="770" class="small muted">Portfolio evidence pack · Nicholas Mariani · 2026</text></svg>