<svg xmlns="http://www.w3.org/2000/svg" width="1200" height="800" viewBox="0 0 1200 800" role="img" aria-labelledby="t d">
<title id="t">Synthetic n8n reconciliation workflow</title><desc id="d">Anonymized or synthetic reconstruction based on real delivery. It is not a production screenshot. No client data, credentials, account identifiers or private endpoints are included.</desc>
<style>text{font-family:Arial, Helvetica, sans-serif;fill:#17211d}.serif{font-family:Georgia, Times New Roman, serif}.mono{font-family:ui-monospace, SFMono-Regular, Consolas, monospace;letter-spacing:1px}.small{font-size:14px}.label{font-size:13px;font-weight:700;fill:#175b47}.body{font-size:18px}.muted{fill:#5d6963}.node{fill:#fffdf8;stroke:#17211d;stroke-width:1.5}.soft{fill:#e6eee8;stroke:#175b47;stroke-width:1.5}.line{stroke:#17211d;stroke-width:2;fill:none}.dash{stroke:#5d6963;stroke-width:1.5;stroke-dasharray:7 7;fill:none}</style>
<rect width="1200" height="800" fill="#f5f1e8"/><line x1="64" y1="74" x2="1136" y2="74" stroke="#17211d"/><text x="64" y="48" class="mono label">EVIDENCE RECONSTRUCTION</text>
<text x="64" y="132" class="serif" font-size="42">Synthetic n8n reconciliation workflow</text><text x="64" y="166" class="body muted">Workflow reconstruction showing controls without production nodes or endpoints.</text>
<rect x="64" y="265" width="165" height="90" rx="4" class="node"/><text x="82" y="296" font-size="17" font-weight="700">Cron trigger</text><text x="82" y="321" class="small muted">nightly</text><path d="M229 310 L278 310" class="line"/><path d="M269 304 L278 310 L269 316" class="line"/><rect x="278" y="265" width="175" height="90" rx="4" class="node"/><text x="296" y="296" font-size="17" font-weight="700">Fetch records</text><text x="296" y="321" class="small muted">bounded window</text><path d="M453 310 L502 310" class="line"/><path d="M493 304 L502 310 L493 316" class="line"/><rect x="502" y="265" width="175" height="90" rx="4" class="soft"/><text x="520" y="296" font-size="17" font-weight="700">Normalize</text><text x="520" y="321" class="small muted">stable keys</text><path d="M677 310 L726 310" class="line"/><path d="M717 304 L726 310 L717 316" class="line"/><rect x="726" y="265" width="175" height="90" rx="4" class="node"/><text x="744" y="296" font-size="17" font-weight="700">Compare</text><text x="744" y="321" class="small muted">expected vs actual</text><path d="M901 310 L950 310" class="line"/><path d="M941 304 L950 310 L941 316" class="line"/><rect x="950" y="265" width="186" height="90" rx="4" class="node"/><text x="968" y="296" font-size="17" font-weight="700">Write outcome</text><text x="968" y="321" class="small muted">status + log</text><rect x="502" y="470" width="175" height="90" rx="4" class="node"/><text x="520" y="501" font-size="17" font-weight="700">Retry branch</text><text x="520" y="526" class="small muted">backoff + cap</text><rect x="726" y="470" width="175" height="90" rx="4" class="node"/><text x="744" y="501" font-size="17" font-weight="700">Exception queue</text><text x="744" y="526" class="small muted">manual review</text><path d="M590 355 L590 470" class="line"/><path d="M581 464 L590 470 L581 476" class="line"/><text x="590.0" y="345" text-anchor="middle" class="small muted">API error</text><path d="M813 355 L813 470" class="line"/><path d="M804 464 L813 470 L804 476" class="line"/><text x="813.0" y="345" text-anchor="middle" class="small muted">mismatch</text>
<line x1="64" y1="716" x2="1136" y2="716" stroke="#c7cec8"/><text x="64" y="748" class="small muted">Anonymized or synthetic reconstruction based on real delivery. It is not a production screenshot. No client data, credentials, account identifiers or private endpoints are included.</text><text x="64" y="770" class="small muted">Portfolio evidence pack · Nicholas Mariani · 2026</text></svg>