<svg xmlns="http://www.w3.org/2000/svg" width="1200" height="800" viewBox="0 0 1200 800" role="img" aria-labelledby="t d">
<title id="t">Attribution map</title><desc id="d">Anonymized or synthetic reconstruction based on real delivery. It is not a production screenshot. No client data, credentials, account identifiers or private endpoints are included.</desc>
<style>text{font-family:Arial, Helvetica, sans-serif;fill:#17211d}.serif{font-family:Georgia, Times New Roman, serif}.mono{font-family:ui-monospace, SFMono-Regular, Consolas, monospace;letter-spacing:1px}.small{font-size:14px}.label{font-size:13px;font-weight:700;fill:#175b47}.body{font-size:18px}.muted{fill:#5d6963}.node{fill:#fffdf8;stroke:#17211d;stroke-width:1.5}.soft{fill:#e6eee8;stroke:#175b47;stroke-width:1.5}.line{stroke:#17211d;stroke-width:2;fill:none}.dash{stroke:#5d6963;stroke-width:1.5;stroke-dasharray:7 7;fill:none}</style>
<rect width="1200" height="800" fill="#f5f1e8"/><line x1="64" y1="74" x2="1136" y2="74" stroke="#17211d"/><text x="64" y="48" class="mono label">EVIDENCE RECONSTRUCTION</text>
<text x="64" y="132" class="serif" font-size="42">Attribution map</text><text x="64" y="166" class="body muted">Synthetic first-touch and last-touch field logic for funnel diagnosis.</text>
<rect x="70" y="260" width="190" height="95" rx="4" class="node"/><text x="88" y="291" font-size="17" font-weight="700">Ad click</text><text x="88" y="316" class="small muted">UTM set</text><path d="M260 308 L340 308" class="line"/><path d="M331 302 L340 308 L331 314" class="line"/><rect x="340" y="260" width="190" height="95" rx="4" class="soft"/><text x="358" y="291" font-size="17" font-weight="700">Landing</text><text x="358" y="316" class="small muted">first source stored</text><path d="M530 308 L610 308" class="line"/><path d="M601 302 L610 308 L601 314" class="line"/><rect x="610" y="260" width="190" height="95" rx="4" class="node"/><text x="628" y="291" font-size="17" font-weight="700">CRM lead</text><text x="628" y="316" class="small muted">last source updates</text><path d="M800 308 L880 308" class="line"/><path d="M871 302 L880 308 L871 314" class="line"/><rect x="880" y="260" width="240" height="95" rx="4" class="node"/><text x="898" y="291" font-size="17" font-weight="700">Operational outcome</text><text x="898" y="316" class="small muted">owner + stage</text><path d="M165 355 C165 500 730 500 730 355" class="dash"/><text x="350" y="510" class="small muted">first-touch field is immutable</text><path d="M435 355 C435 440 1000 440 1000 355" class="dash"/><text x="700" y="430" class="small muted">last-touch field follows qualified interactions</text>
<line x1="64" y1="716" x2="1136" y2="716" stroke="#c7cec8"/><text x="64" y="748" class="small muted">Anonymized or synthetic reconstruction based on real delivery. It is not a production screenshot. No client data, credentials, account identifiers or private endpoints are included.</text><text x="64" y="770" class="small muted">Portfolio evidence pack · Nicholas Mariani · 2026</text></svg>