<svg xmlns="http://www.w3.org/2000/svg" width="1200" height="800" viewBox="0 0 1200 800" role="img" aria-labelledby="t d">
<title id="t">E-commerce customer journey</title><desc id="d">Anonymized or synthetic reconstruction based on real delivery. It is not a production screenshot. No client data, credentials, account identifiers or private endpoints are included.</desc>
<style>text{font-family:Arial, Helvetica, sans-serif;fill:#17211d}.serif{font-family:Georgia, Times New Roman, serif}.mono{font-family:ui-monospace, SFMono-Regular, Consolas, monospace;letter-spacing:1px}.small{font-size:14px}.label{font-size:13px;font-weight:700;fill:#175b47}.body{font-size:18px}.muted{fill:#5d6963}.node{fill:#fffdf8;stroke:#17211d;stroke-width:1.5}.soft{fill:#e6eee8;stroke:#175b47;stroke-width:1.5}.line{stroke:#17211d;stroke-width:2;fill:none}.dash{stroke:#5d6963;stroke-width:1.5;stroke-dasharray:7 7;fill:none}</style>
<rect width="1200" height="800" fill="#f5f1e8"/><line x1="64" y1="74" x2="1136" y2="74" stroke="#17211d"/><text x="64" y="48" class="mono label">EVIDENCE RECONSTRUCTION</text>
<text x="64" y="132" class="serif" font-size="42">E-commerce customer journey</text><text x="64" y="166" class="body muted">Generalized lifecycle map based on owned-store and client delivery experience.</text>
<rect x="64" y="285" width="175" height="90" rx="4" class="node"/><text x="82" y="316" font-size="17" font-weight="700">Discover</text><text x="82" y="341" class="small muted">ad / referral</text><path d="M239 330 L279 330" class="line"/><path d="M270 324 L279 330 L270 336" class="line"/><rect x="279" y="285" width="175" height="90" rx="4" class="node"/><text x="297" y="316" font-size="17" font-weight="700">Evaluate</text><text x="297" y="341" class="small muted">product page</text><path d="M454 330 L494 330" class="line"/><path d="M485 324 L494 330 L485 336" class="line"/><rect x="494" y="285" width="175" height="90" rx="4" class="soft"/><text x="512" y="316" font-size="17" font-weight="700">Purchase</text><text x="512" y="341" class="small muted">checkout</text><path d="M669 330 L709 330" class="line"/><path d="M700 324 L709 330 L700 336" class="line"/><rect x="709" y="285" width="175" height="90" rx="4" class="node"/><text x="727" y="316" font-size="17" font-weight="700">Onboard</text><text x="727" y="341" class="small muted">delivery</text><path d="M884 330 L924 330" class="line"/><path d="M915 324 L924 330 L915 336" class="line"/><rect x="924" y="285" width="175" height="90" rx="4" class="node"/><text x="942" y="316" font-size="17" font-weight="700">Retain</text><text x="942" y="341" class="small muted">email / SMS</text><path d="M1014 375 C1014 520 151 520 151 375" class="dash"/><text x="455" y="540" class="small muted">re-engagement loop based on consent and lifecycle state</text>
<line x1="64" y1="716" x2="1136" y2="716" stroke="#c7cec8"/><text x="64" y="748" class="small muted">Anonymized or synthetic reconstruction based on real delivery. It is not a production screenshot. No client data, credentials, account identifiers or private endpoints are included.</text><text x="64" y="770" class="small muted">Portfolio evidence pack · Nicholas Mariani · 2026</text></svg>